# xmcd
#
# Track frame offsets: 
#        150
#        16550
#        33615
#        52580
#        71788
#        86920
#        107955
#        125825
#        144043
#        160498
#
# Disc length: 2358 seconds
#
# Revision: 1
# Processed by: cddbd v1.5.2PL0 Copyright (c) Steve Scherf et al.
# Submitted via: ExactAudioCopy v0.99pb5
#
DISCID=8309340a
DTITLE=Harem Scarem - Big Bang Theory
DYEAR=1998
DGENRE=Hard Rock
TTITLE0=So Blind
TTITLE1=Climb The Gate
TTITLE2=Reload
TTITLE3=Tables Turning
TTITLE4=Turn Around
TTITLE5=Seas Of Dissension
TTITLE6=Sometimes I Wish
TTITLE7=Never Have It All
TTITLE8=Lying
TTITLE9=In My State Of Mind
EXTD=YEAR: 1998
EXTT0=
EXTT1=
EXTT2=
EXTT3=
EXTT4=
EXTT5=
EXTT6=
EXTT7=
EXTT8=
EXTT9=
PLAYORDER=
